<svg xmlns="http://www.w3.org/2000/svg" xmlns:xlink="http://www.w3.org/1999/xlink" width="500" height="500" viewBox="0 0 500 500">
  <defs>
    <clipPath id="clip-path">
      <rect id="Rechteck_1" data-name="Rechteck 1" width="50" height="39.1" fill="#60a190"/>
    </clipPath>
    <clipPath id="clip-Custom_Size_1">
      <rect width="500" height="500"/>
    </clipPath>
  </defs>
  <g id="Custom_Size_1" data-name="Custom Size – 1" clip-path="url(#clip-Custom_Size_1)">
    <g id="BBS_Logo_1000x1000px" clip-path="url(#clip-path)">
      <g id="Gruppe_15" data-name="Gruppe 15" transform="translate(-0.001)">
        <path id="Pfad_1" data-name="Pfad 1" d="M137.939,19.549a.268.268,0,0,1,0-.351A11.634,11.634,0,0,0,129.108.059h0L120.571,0a2.428,2.428,0,0,0-1.764.742l-.3.313a20.737,20.737,0,0,0-2.155,2.807,11.745,11.745,0,0,0-2.1,5.866c0,4.1,1.755,6.174,4.233,8.653,2.806,2.807,5.13,5.558,5.13,10.817a14.082,14.082,0,0,1-2.583,7.519l-.681,1.061a.75.75,0,0,0,.631,1.155h7.947a11.817,11.817,0,0,0,11.862-11.021A11.667,11.667,0,0,0,137.939,19.549Z" transform="translate(-90.81 0.001)" fill="#60a190"/>
        <path id="Pfad_2" data-name="Pfad 2" d="M24.436,35.078a11.748,11.748,0,0,0,2.1-5.866c0-4.1-1.754-6.174-4.233-8.653C19.5,17.753,17.173,15,17.173,9.742a14.079,14.079,0,0,1,2.583-7.519l.674-1.05A.75.75,0,0,0,19.792.018L11.679.074h0A11.634,11.634,0,0,0,2.85,19.213a.268.268,0,0,1,0,.351A11.667,11.667,0,0,0,0,27.927a11.817,11.817,0,0,0,11.862,11.02h8.36a2.428,2.428,0,0,0,1.727-.721l.35-.354A20.783,20.783,0,0,0,24.436,35.078Z" transform="translate(0.026 -0.014)" fill="#60a190"/>
      </g>
    </g>
  </g>
</svg>
