<svg xmlns="http://www.w3.org/2000/svg" xmlns:xlink="http://www.w3.org/1999/xlink" width="1000" height="782" viewBox="0 0 1000 782">
  <defs>
    <clipPath id="clip-Custom_Size_1">
      <rect width="1000" height="782"/>
    </clipPath>
  </defs>
  <g id="Custom_Size_1" data-name="Custom Size – 1" clip-path="url(#clip-Custom_Size_1)">
    <g id="Group_3" data-name="Group 3" transform="translate(0 1.667)">
      <path id="Pfad_1" data-name="Pfad 1" d="M587.992,390.981a5.36,5.36,0,0,1,0-7.02A232.68,232.68,0,0,0,411.373,1.181h0L240.632,0a48.561,48.561,0,0,0-35.28,14.84l-6,6.26a414.723,414.723,0,0,0-43.1,56.14,234.9,234.9,0,0,0-42,117.32c0,82,35.1,123.48,84.66,173.06,56.12,56.14,102.6,111.16,102.6,216.34a281.645,281.645,0,0,1-51.66,150.38l-13.62,21.22a15,15,0,0,0,12.62,23.1h158.94c124.9.759,228.828-95.8,237.24-220.42a233.34,233.34,0,0,0-57.04-167.259Z" transform="translate(354.485 0.001)" fill="#f5f5f5"/>
      <path id="Pfad_2" data-name="Pfad 2" d="M489.118,701.219a234.96,234.96,0,0,0,42-117.32c0-82-35.08-123.48-84.66-173.06-56.06-56.12-102.6-111.18-102.6-216.34a281.58,281.58,0,0,1,51.66-150.38l13.48-21a15,15,0,0,0-12.76-23.1l-162.26,1.12h0A232.68,232.68,0,0,0,57.4,383.919a5.36,5.36,0,0,1,0,7.02A233.34,233.34,0,0,0,.4,558.2C8.821,682.812,112.746,779.36,237.64,778.6h167.2a48.569,48.569,0,0,0,34.552-14.432l7-7.068a415.674,415.674,0,0,0,42.74-55.88Z" transform="translate(0.019 0.044)" fill="#f5f5f5"/>
    </g>
  </g>
</svg>
